<svg id="Layer_1" data-name="Layer 1" xmlns="http://www.w3.org/2000/svg" viewBox="0 0 977.0119 242.7652">
  <defs>
    <style>
      .cls-1 {
        font-size: 152.5507px;
        font-family: Mina-Regular, Mina;
      }

      .cls-1, .cls-6, .cls-7 {
        fill: #00124c;
      }

      .cls-2, .cls-7 {
        font-family: Mina-Bold, Mina;
        font-weight: 700;
      }

      .cls-3 {
        fill: #ff4e00;
      }

      .cls-4 {
        fill: #008cff;
      }

      .cls-5 {
        fill: #ba3500;
      }

      .cls-7 {
        font-size: 20.5223px;
      }
    </style>
  </defs>
  <title>SVG FILE</title>
  <g>
    <text class="cls-1" transform="translate(170.3454 160.5406)">Argue<tspan class="cls-2" x="414.7798" y="0">View</tspan></text>
    <path class="cls-3" d="M203.1089,19.9372V72.7394L186.6,81.9291l-2.464,1.3724v.0322l-25.137,14.0211-.7545.4254-15.53,8.66-13.9892,7.8092-14.8238,8.2746A30.5748,30.5748,0,0,1,102.392,79.81L116.59,71.375l10.4176-6.196,15.7067-9.342Z" transform="translate(-82.3113 -19.9372)"/>
    <path class="cls-4" d="M203.1089,172.3085v52.8022L142.7141,189.203,98.8365,163.1189l-16.5252-9.8237v-61.55l16.5252-9.8157L102.392,79.81a30.5748,30.5748,0,0,0,11.5091,42.7137.87.87,0,0,0,.0884.0482l28.7246,16.0357,15.53,8.66,25.8915,14.4466v.0322l2.464,1.3724Z" transform="translate(-82.3113 -19.9372)"/>
    <path class="cls-5" d="M128.7249,114.2493l-14.8238,8.2746A30.5748,30.5748,0,0,1,102.392,79.81L116.59,71.375a30.5613,30.5613,0,0,0,11.5894,42.5693.8989.8989,0,0,0,.0883.0482Z" transform="translate(-82.3113 -19.9372)"/>
    <path class="cls-6" d="M82.3153,172.3124v52.8023l54.1106-32.1677L92.34,166.7344ZM190.5524,87.0776V87.11l-3.2907,1.838L161.37,103.3942l-12.0628,6.7337,22.2237,12.4-22.2237,12.4,12.0628,6.7337,25.8915,14.4466,2.8492,1.6212,2.8653,1.5972,10.1366-6.0275v-61.55l-10.1286-6.0194ZM82.3153,72.7434l10.0163,5.578,44.0943-26.2126L82.3153,19.9412Z" transform="translate(-82.3113 -19.9372)"/>
    <text class="cls-7" transform="translate(947.4601 95.2086)">TM</text>
  </g>
</svg>
